<svg width="210" height="41" viewBox="0 0 210 41" fill="none" xmlns="http://www.w3.org/2000/svg">
	<path d="M47.3406 27.1703H48.358L50.0216 31.9128C50.1453 32.2742 50.2786 32.8345 50.2786 32.8345H50.298C50.298 32.8345 50.4313 32.2742 50.555 31.9128L52.2369 27.1703H53.2349L50.7636 33.8808H49.8226L47.3417 27.1703H47.3406ZM50.7712 33.8937H49.8119L49.8087 33.8851L47.3213 27.1574H48.3666L48.3698 27.166L50.0334 31.9085C50.1442 32.2333 50.2646 32.7258 50.2872 32.8172C50.3098 32.7258 50.4292 32.2344 50.541 31.9085L52.2262 27.1563H53.2532L50.7722 33.8937H50.7712ZM49.8302 33.8668H50.7529L53.2145 27.1832H52.2455L50.5668 31.9171C50.4453 32.2731 50.312 32.8323 50.3109 32.8377L50.3087 32.8484H50.2689L50.2668 32.8377C50.2657 32.8323 50.1324 32.2731 50.0108 31.9171L48.3504 27.1832H47.3621L49.8323 33.8668H49.8302ZM55.9223 28.9566C57.358 28.9566 58.5173 30.0115 58.5173 31.4655C58.5173 32.9194 57.358 33.9937 55.9223 33.9937C54.4867 33.9937 53.3274 32.9291 53.3274 31.4655C53.3274 30.0018 54.4867 28.9566 55.9223 28.9566ZM55.9223 33.1958C56.8343 33.1958 57.5763 32.4731 57.5763 31.4665C57.5763 30.46 56.8353 29.7556 55.9223 29.7556C55.0093 29.7556 54.2684 30.4686 54.2684 31.4665C54.2684 32.4645 55.019 33.1958 55.9223 33.1958ZM55.9223 34.0077C55.2169 34.0077 54.5619 33.7528 54.078 33.2883C53.5855 32.8172 53.3145 32.1699 53.3145 31.4655C53.3145 30.7611 53.5855 30.1234 54.078 29.6556C54.5619 29.1953 55.2179 28.9426 55.9223 28.9426C56.6267 28.9426 57.2827 29.1953 57.7666 29.6556C58.2592 30.1223 58.5302 30.7654 58.5302 31.4655C58.5302 32.1656 58.2592 32.8172 57.7666 33.2883C57.2827 33.7518 56.6267 34.0077 55.9223 34.0077ZM55.9223 28.9705C55.2244 28.9705 54.5748 29.2211 54.0963 29.676C53.6091 30.1384 53.3414 30.774 53.3414 31.4665C53.3414 32.1591 53.6091 32.8043 54.0963 33.27C54.5759 33.7292 55.2244 33.9819 55.9223 33.9819C56.6203 33.9819 57.2687 33.7292 57.7484 33.27C58.2355 32.8043 58.5033 32.1634 58.5033 31.4665C58.5033 30.7697 58.2355 30.1384 57.7484 29.676C57.2687 29.2211 56.6203 28.9705 55.9223 28.9705ZM55.9223 33.2098C54.9878 33.2098 54.2555 32.4441 54.2555 31.4665C54.2555 30.9869 54.4307 30.5471 54.748 30.2277C55.0588 29.9147 55.476 29.7427 55.9234 29.7427C56.8741 29.7427 57.5903 30.4836 57.5903 31.4665C57.5903 32.4495 56.8741 33.2098 55.9234 33.2098H55.9223ZM55.9223 29.7685C55.4825 29.7685 55.0717 29.9384 54.7663 30.246C54.4544 30.561 54.2823 30.9944 54.2823 31.4665C54.2823 32.429 55.0029 33.1829 55.9223 33.1829C56.8418 33.1829 57.5623 32.4452 57.5623 31.4665C57.5623 30.4879 56.8569 29.7696 55.9223 29.7696V29.7685ZM61.8048 28.9566C63.2404 28.9566 64.3997 30.0115 64.3997 31.4655C64.3997 32.9194 63.2404 33.9937 61.8048 33.9937C60.3691 33.9937 59.2098 32.9291 59.2098 31.4655C59.2098 30.0018 60.3691 28.9566 61.8048 28.9566ZM61.8048 33.1958C62.7167 33.1958 63.4587 32.4731 63.4587 31.4665C63.4587 30.46 62.7178 29.7556 61.8048 29.7556C60.8918 29.7556 60.1508 30.4686 60.1508 31.4665C60.1508 32.4645 60.9014 33.1958 61.8048 33.1958ZM61.8048 34.0077C61.0993 34.0077 60.4444 33.7528 59.9605 33.2883C59.4679 32.8172 59.1969 32.1699 59.1969 31.4655C59.1969 30.7611 59.4679 30.1234 59.9605 29.6556C60.4444 29.1953 61.1004 28.9426 61.8048 28.9426C62.5092 28.9426 63.1652 29.1953 63.6491 29.6556C64.1416 30.1223 64.4126 30.7654 64.4126 31.4655C64.4126 32.1656 64.1416 32.8172 63.6491 33.2883C63.1652 33.7518 62.5092 34.0077 61.8048 34.0077ZM61.8048 28.9705C61.1068 28.9705 60.4573 29.2211 59.9787 29.676C59.4916 30.1384 59.2238 30.774 59.2238 31.4665C59.2238 32.1591 59.4916 32.8043 59.9787 33.27C60.4584 33.7292 61.1068 33.9819 61.8048 33.9819C62.5027 33.9819 63.1512 33.7292 63.6308 33.27C64.118 32.8043 64.3857 32.1634 64.3857 31.4665C64.3857 30.7697 64.118 30.1384 63.6308 29.676C63.1512 29.2211 62.5027 28.9705 61.8048 28.9705ZM61.8048 33.2098C60.8703 33.2098 60.1379 32.4441 60.1379 31.4665C60.1379 30.9869 60.3132 30.5471 60.6304 30.2277C60.9412 29.9147 61.3585 29.7427 61.8059 29.7427C62.7565 29.7427 63.4727 30.4836 63.4727 31.4665C63.4727 32.4495 62.7565 33.2098 61.8059 33.2098H61.8048ZM61.8048 29.7685C61.3649 29.7685 60.9541 29.9384 60.6487 30.246C60.3369 30.561 60.1648 30.9944 60.1648 31.4665C60.1648 32.429 60.8853 33.1829 61.8048 33.1829C62.7242 33.1829 63.4448 32.4452 63.4448 31.4665C63.4448 30.4879 62.7393 29.7696 61.8048 29.7696V29.7685ZM65.445 29.0705H66.3387V29.9072C66.3387 30.1072 66.3193 30.2685 66.3193 30.2685H66.3387C66.557 29.5652 67.1183 29.0135 67.8593 29.0135C67.983 29.0135 68.097 29.0329 68.097 29.0329V29.9448C68.097 29.9448 67.9733 29.9169 67.8313 29.9169C67.242 29.9169 66.7 30.3352 66.4817 31.0482C66.3957 31.3235 66.3677 31.6182 66.3677 31.9128V33.8797H65.4461V29.0705H65.445ZM66.3795 33.8937H65.431V29.0576H66.3516V29.9072C66.3516 30.0459 66.3419 30.1685 66.3365 30.2288C66.5828 29.4813 67.1764 29.0006 67.8582 29.0006C67.9819 29.0006 68.097 29.02 68.098 29.02L68.1088 29.0221V29.9631L68.0927 29.9588C68.0927 29.9588 67.969 29.9309 67.8292 29.9309C67.2259 29.9309 66.7011 30.3707 66.4925 31.0525C66.4161 31.2988 66.3785 31.5805 66.3785 31.9128V33.8937H66.3795ZM65.4579 33.8668H66.3527V31.9128C66.3527 31.5773 66.3903 31.2923 66.4677 31.0439C66.6807 30.3513 67.2151 29.904 67.8303 29.904C67.9421 29.904 68.0443 29.9223 68.083 29.9298V29.0458C68.0518 29.0415 67.9572 29.0286 67.8593 29.0286C67.1786 29.0286 66.586 29.5168 66.3516 30.2739L66.3483 30.2836H66.3043L66.3064 30.2685C66.3064 30.2685 66.3258 30.1051 66.3258 29.9094V29.0867H65.459V33.869L65.4579 33.8668ZM68.9605 27.1703H69.8821V29.6319C69.8821 29.8599 69.8628 30.0309 69.8628 30.0309H69.8821C70.0908 29.5652 70.6994 28.9566 71.6598 28.9566C72.7911 28.9566 73.3137 29.5749 73.3137 30.8009V33.8797H72.3921V31.0095C72.3921 30.3352 72.2491 29.8029 71.4802 29.8029C70.7575 29.8029 70.1596 30.2976 69.9596 30.9912C69.9026 31.1816 69.8832 31.3999 69.8832 31.6278V33.8808H68.9616V27.1703H68.9605ZM73.3277 33.8937H72.3792V31.0095C72.3792 30.3901 72.2706 29.8158 71.4802 29.8158C70.7812 29.8158 70.1746 30.289 69.9725 30.9944C69.9219 31.1644 69.8972 31.3708 69.8972 31.6278V33.8937H68.9487V27.1563H69.8972V29.6308C69.8972 29.805 69.8864 29.947 69.881 30.004C70.0714 29.5996 70.6489 28.9426 71.6608 28.9426C72.7825 28.9426 73.3277 29.5502 73.3277 30.7998V33.8926V33.8937ZM72.405 33.8668H73.2997V30.8009C73.2997 29.5695 72.7631 28.9705 71.6598 28.9705C70.6446 28.9705 70.0725 29.6405 69.895 30.0363L69.8918 30.0438H69.8488L69.8509 30.0287C69.8509 30.0287 69.8703 29.8556 69.8703 29.6308V27.1832H68.9756V33.8668H69.8703V31.6278C69.8703 31.3687 69.895 31.159 69.9466 30.9869C70.1531 30.2707 70.7693 29.7889 71.4802 29.7889C72.2943 29.7889 72.4061 30.375 72.4061 31.0095V33.8668H72.405ZM76.7163 28.9566C78.0756 28.9566 78.7972 29.9642 78.7972 31.2095C78.7972 31.3332 78.7682 31.6085 78.7682 31.6085H75.2613C75.3086 32.6635 76.0592 33.1958 76.9152 33.1958C77.7713 33.1958 78.3412 32.6355 78.3412 32.6355L78.7219 33.3109C78.7219 33.3109 78.0089 33.9948 76.8593 33.9948C75.3484 33.9948 74.3117 32.9022 74.3117 31.4762C74.3117 29.9459 75.3473 28.9576 76.7163 28.9576V28.9566ZM77.8562 30.9149C77.8272 30.0879 77.3142 29.6889 76.6969 29.6889C75.9936 29.6889 75.4237 30.1255 75.2903 30.9149H77.8562ZM76.8583 34.0077C75.3742 34.0077 74.2977 32.9431 74.2977 31.4762C74.2977 30.0094 75.2925 28.9436 76.7152 28.9436C77.3626 28.9436 77.9025 29.1727 78.2756 29.6072C78.6198 30.0083 78.8101 30.5772 78.8101 31.2095C78.8101 31.3321 78.7822 31.6074 78.7811 31.6096V31.6214H75.2753C75.3 32.1075 75.4796 32.5097 75.7936 32.7871C76.0818 33.042 76.4808 33.1818 76.9142 33.1818C77.7261 33.1818 78.3251 32.6301 78.3305 32.6247L78.3434 32.6129L78.737 33.3119L78.7295 33.3195C78.7219 33.3259 77.9993 34.0077 76.8572 34.0077H76.8583ZM76.7163 28.9705C75.3086 28.9705 74.3257 30.0008 74.3257 31.4762C74.3257 32.9517 75.3914 33.9808 76.8593 33.9808C77.9283 33.9808 78.6251 33.3797 78.7047 33.3076L78.338 32.657C78.2466 32.7366 77.6734 33.2098 76.9163 33.2098C76.4754 33.2098 76.0711 33.0667 75.7775 32.8086C75.4538 32.5237 75.272 32.1096 75.2495 31.6096V31.5956H78.7574C78.7628 31.5407 78.7843 31.3171 78.7843 31.2095C78.7843 30.5836 78.5972 30.0212 78.2563 29.6254C77.8874 29.1974 77.3551 28.9705 76.7163 28.9705ZM77.8702 30.9288H75.2742L75.2763 30.9127C75.4054 30.1492 75.9495 29.676 76.6959 29.676C77.2422 29.676 77.8369 30.0018 77.8691 30.9149V30.9288H77.8702ZM75.3065 30.9019H77.8422C77.8057 30.018 77.2282 29.7029 76.6969 29.7029C75.9689 29.7029 75.4377 30.1621 75.3065 30.9019ZM81.9428 28.9566C83.3021 28.9566 84.0237 29.9642 84.0237 31.2095C84.0237 31.3332 83.9946 31.6085 83.9946 31.6085H80.4877C80.5351 32.6635 81.2857 33.1958 82.1417 33.1958C82.9977 33.1958 83.5677 32.6355 83.5677 32.6355L83.9484 33.3109C83.9484 33.3109 83.2354 33.9948 82.0858 33.9948C80.5748 33.9948 79.5382 32.9022 79.5382 31.4762C79.5382 29.9459 80.5738 28.9576 81.9428 28.9576V28.9566ZM83.0838 30.9149C83.0547 30.0879 82.5418 29.6889 81.9245 29.6889C81.2212 29.6889 80.6512 30.1255 80.5178 30.9149H83.0838ZM82.0858 34.0077C80.6017 34.0077 79.5253 32.9431 79.5253 31.4762C79.5253 30.0094 80.52 28.9436 81.9428 28.9436C82.5901 28.9436 83.13 29.1727 83.5032 29.6072C83.8473 30.0083 84.0376 30.5772 84.0376 31.2095C84.0376 31.3321 84.0097 31.6074 84.0086 31.6096V31.6214H80.5028C80.5275 32.1075 80.7071 32.5097 81.0211 32.7871C81.3093 33.042 81.7083 33.1818 82.1417 33.1818C82.9536 33.1818 83.5526 32.6301 83.558 32.6247L83.5709 32.6129L83.9645 33.3119L83.957 33.3195C83.9495 33.3259 83.2268 34.0077 82.0847 34.0077H82.0858ZM81.9428 28.9705C80.5351 28.9705 79.5521 30.0008 79.5521 31.4762C79.5521 32.9517 80.6179 33.9808 82.0858 33.9808C83.1547 33.9808 83.8516 33.3797 83.9312 33.3076L83.5645 32.657C83.473 32.7366 82.8999 33.2098 82.1428 33.2098C81.7019 33.2098 81.2975 33.0667 81.0039 32.8086C80.6802 32.5237 80.4985 32.1096 80.4759 31.6096V31.5956H83.9839C83.9892 31.5407 84.0107 31.3171 84.0107 31.2095C84.0107 30.5836 83.8236 30.0212 83.4827 29.6254C83.1139 29.1974 82.5815 28.9705 81.9428 28.9705ZM83.0977 30.9288H80.5017L80.5039 30.9127C80.6329 30.1492 81.1771 29.676 81.9234 29.676C82.4697 29.676 83.0644 30.0018 83.0967 30.9149V30.9288H83.0977ZM80.5329 30.9019H83.0687C83.0321 30.018 82.4546 29.7029 81.9234 29.7029C81.1954 29.7029 80.6641 30.1621 80.5329 30.9019ZM85.098 29.0705H85.9916V29.7072C85.9916 29.8975 85.9723 30.0588 85.9723 30.0588H85.9916C86.182 29.6405 86.752 28.9566 87.7972 28.9566C88.9286 28.9566 89.4512 29.5749 89.4512 30.8009V33.8797H88.5296V31.0095C88.5296 30.3352 88.3866 29.8029 87.6177 29.8029C86.8487 29.8029 86.2971 30.2879 86.097 30.9815C86.04 31.1719 86.0207 31.3902 86.0207 31.6278V33.8808H85.0991V29.0716L85.098 29.0705ZM89.4641 33.8937H88.5156V31.0095C88.5156 30.3901 88.407 29.8158 87.6166 29.8158C86.9047 29.8158 86.3132 30.275 86.1089 30.9848C86.0572 31.1568 86.0336 31.3611 86.0336 31.6278V33.8937H85.0851V29.0576H86.0056V29.7083C86.0056 29.8513 85.9949 29.9793 85.9895 30.0341C86.2293 29.5265 86.8412 28.9447 87.7983 28.9447C88.92 28.9447 89.4652 29.5523 89.4652 30.8019V33.8948L89.4641 33.8937ZM88.5425 33.8668H89.4372V30.8009C89.4372 29.5695 88.9006 28.9705 87.7972 28.9705C86.8401 28.9705 86.2336 29.5599 86.0035 30.0653L86.0002 30.0728H85.9572L85.9594 30.0578C85.9594 30.0578 85.9787 29.8943 85.9787 29.7072V29.0834H85.112V33.8658H86.0067V31.6268C86.0067 31.3579 86.0314 31.1504 86.083 30.9762C86.2906 30.2546 86.8928 29.7878 87.6166 29.7878C88.4307 29.7878 88.5425 30.3739 88.5425 31.0084V33.8658V33.8668ZM93.698 27.1703H94.6863L96.2262 30.8009C96.3779 31.1719 96.5585 31.7042 96.5585 31.7042H96.5779C96.5779 31.7042 96.7586 31.1719 96.9102 30.8009L98.4502 27.1703H99.4385L99.9805 33.8808H99.0492L98.7169 29.6513C98.6878 29.2426 98.7072 28.663 98.7072 28.663H98.6878C98.6878 28.663 98.4878 29.2802 98.3265 29.6513L96.9866 32.6731H96.1499L94.8196 29.6513C94.668 29.2899 94.4583 28.6436 94.4583 28.6436H94.4389C94.4389 28.6436 94.4486 29.2426 94.4196 29.6513L94.097 33.8808H93.156L93.698 27.1703ZM99.9955 33.8937H99.0373L98.704 29.6523C98.6792 29.2996 98.69 28.8146 98.6932 28.692C98.6545 28.8114 98.4814 29.3319 98.3394 29.6566L96.9962 32.6871H96.1424L96.1391 32.6796L94.8089 29.6577C94.6744 29.3383 94.4938 28.7909 94.4551 28.6716C94.4561 28.7942 94.4604 29.2974 94.4357 29.6523L94.112 33.8937H93.1441L93.6883 27.1563H94.6981L94.7013 27.1649L96.2413 30.7955C96.3811 31.1353 96.5456 31.6171 96.5714 31.6902C96.5962 31.6171 96.7618 31.1353 96.9016 30.7955L98.4448 27.1563H99.4546L99.9988 33.8937H99.9955ZM99.0621 33.8668H99.9665L99.4266 27.1832H98.4599L96.9231 30.8052C96.7726 31.1708 96.5929 31.7021 96.5908 31.7074L96.5876 31.716H96.5489L96.5456 31.7074C96.5456 31.7074 96.3639 31.1708 96.2133 30.8052L94.6777 27.1832H93.7109L93.171 33.8668H94.0851L94.4077 29.6502C94.4357 29.2469 94.4271 28.6501 94.4271 28.6436V28.6296H94.469L94.4723 28.6393C94.4744 28.6458 94.683 29.2888 94.8325 29.6459L96.1596 32.6602H96.978L98.3147 29.6459C98.4738 29.2802 98.6739 28.6651 98.6749 28.6587L98.6782 28.649H98.7212V28.663C98.7212 28.6683 98.7018 29.2469 98.7298 29.6502L99.061 33.8668H99.0621ZM103.867 30.8772H104.076V30.7923C104.076 30.0029 103.629 29.7373 103.021 29.7373C102.28 29.7373 101.681 30.2029 101.681 30.2029L101.3 29.5287C101.3 29.5287 101.994 28.9587 103.096 28.9587C104.312 28.9587 104.997 29.6244 104.997 30.8407V33.8819H104.142V33.4259C104.142 33.2076 104.162 33.0452 104.162 33.0452H104.142C104.142 33.0452 103.753 33.9959 102.602 33.9959C101.775 33.9959 100.968 33.4926 100.968 32.5323C100.968 30.945 103.058 30.8783 103.867 30.8783V30.8772ZM102.803 33.2528C103.583 33.2528 104.086 32.4355 104.086 31.7225V31.5709H103.849C103.155 31.5709 101.9 31.6182 101.9 32.4828C101.9 32.8721 102.204 33.2528 102.803 33.2528ZM102.603 34.0077C101.784 34.0077 100.955 33.5001 100.955 32.5301C100.955 31.8429 101.344 31.3601 102.11 31.0955C102.714 30.8869 103.401 30.8632 103.867 30.8632H104.063V30.7912C104.063 30.0997 103.712 29.7491 103.021 29.7491C102.293 29.7491 101.695 30.2072 101.689 30.2115L101.677 30.2212L101.284 29.5233L101.292 29.5158C101.299 29.5104 102.002 28.9426 103.097 28.9426C104.332 28.9426 105.011 29.6158 105.011 30.8374V33.8926H104.129V33.4227C104.129 33.2582 104.14 33.1248 104.146 33.0689C104.078 33.2098 103.652 34.0066 102.603 34.0066V34.0077ZM103.867 30.8901C101.953 30.8901 100.982 31.4418 100.982 32.5301C100.982 33.4818 101.797 33.9808 102.603 33.9808C103.73 33.9808 104.127 33.0485 104.13 33.0388L104.134 33.0302H104.177L104.175 33.0452C104.175 33.0452 104.155 33.2087 104.155 33.4238V33.8668H104.983V30.8385C104.983 29.6341 104.313 28.9705 103.096 28.9705C102.076 28.9705 101.401 29.4663 101.317 29.5308L101.684 30.1825C101.774 30.1169 102.341 29.7233 103.02 29.7233C103.698 29.7233 104.089 30.0825 104.089 30.7923V30.8912H103.866L103.867 30.8901ZM102.803 33.2668C102.174 33.2668 101.887 32.8603 101.887 32.4839C101.887 31.5579 103.312 31.5579 103.849 31.5579H104.099V31.7236C104.099 32.086 103.968 32.4742 103.748 32.7645C103.5 33.0893 103.165 33.2678 102.803 33.2678V33.2668ZM103.849 31.5838C103.018 31.5838 101.914 31.6773 101.914 32.4828C101.914 32.8474 102.193 33.2388 102.803 33.2388C103.157 33.2388 103.485 33.0635 103.726 32.7463C103.943 32.4613 104.072 32.0784 104.072 31.7225V31.5838H103.849ZM108.837 30.8772H109.046V30.7923C109.046 30.0029 108.6 29.7373 107.991 29.7373C107.25 29.7373 106.651 30.2029 106.651 30.2029L106.27 29.5287C106.27 29.5287 106.964 28.9587 108.066 28.9587C109.283 28.9587 109.968 29.6244 109.968 30.8407V33.8819H109.113V33.4259C109.113 33.2076 109.132 33.0452 109.132 33.0452H109.113C109.113 33.0452 108.723 33.9959 107.573 33.9959C106.746 33.9959 105.938 33.4926 105.938 32.5323C105.938 30.945 108.029 30.8783 108.837 30.8783V30.8772ZM107.773 33.2528C108.553 33.2528 109.056 32.4355 109.056 31.7225V31.5709H108.818C108.124 31.5709 106.869 31.6182 106.869 32.4828C106.869 32.8721 107.174 33.2528 107.773 33.2528ZM107.574 34.0077C106.754 34.0077 105.925 33.5001 105.925 32.5301C105.925 31.8429 106.315 31.3601 107.08 31.0955C107.685 30.8869 108.372 30.8632 108.837 30.8632H109.033V30.7912C109.033 30.0997 108.683 29.7491 107.991 29.7491C107.263 29.7491 106.665 30.2072 106.66 30.2115L106.648 30.2212L106.254 29.5233L106.263 29.5158C106.269 29.5104 106.973 28.9426 108.068 28.9426C109.302 28.9426 109.982 29.6158 109.982 30.8374V33.8926H109.1V33.4227C109.1 33.2582 109.111 33.1248 109.116 33.0689C109.048 33.2098 108.622 34.0066 107.574 34.0066V34.0077ZM108.837 30.8901C106.923 30.8901 105.952 31.4418 105.952 32.5301C105.952 33.4818 106.767 33.9808 107.574 33.9808C108.701 33.9808 109.098 33.0485 109.101 33.0388L109.104 33.0302H109.147L109.145 33.0452C109.145 33.0452 109.126 33.2087 109.126 33.4238V33.8668H109.954V30.8385C109.954 29.6341 109.284 28.9705 108.066 28.9705C107.047 28.9705 106.372 29.4663 106.288 29.5308L106.654 30.1825C106.745 30.1169 107.311 29.7233 107.99 29.7233C108.669 29.7233 109.059 30.0825 109.059 30.7923V30.8912H108.836L108.837 30.8901ZM107.773 33.2668C107.144 33.2668 106.857 32.8603 106.857 32.4839C106.857 31.5579 108.282 31.5579 108.818 31.5579H109.069V31.7236C109.069 32.086 108.937 32.4742 108.717 32.7645C108.47 33.0893 108.134 33.2678 107.773 33.2678V33.2668ZM108.819 31.5838C107.989 31.5838 106.885 31.6773 106.885 32.4828C106.885 32.8474 107.163 33.2388 107.774 33.2388C108.128 33.2388 108.456 33.0635 108.697 32.7463C108.914 32.4613 109.043 32.0784 109.043 31.7225V31.5838H108.819ZM113.048 35.0777C113.884 35.0777 114.568 34.7067 114.568 33.7281V33.3765C114.568 33.2248 114.578 33.0721 114.578 33.0721H114.559C114.274 33.5474 113.826 33.8227 113.133 33.8227C111.793 33.8227 110.985 32.7484 110.985 31.3611C110.985 29.9739 111.755 28.9566 113.085 28.9566C114.245 28.9566 114.596 29.6695 114.596 29.6695H114.616C114.616 29.6695 114.606 29.6029 114.606 29.5179V29.0716H115.49V33.6808C115.49 35.2681 114.283 35.8768 113.066 35.8768C112.486 35.8768 111.887 35.7155 111.422 35.4778L111.726 34.7551C111.726 34.7551 112.325 35.0777 113.047 35.0777H113.048ZM114.588 31.3708C114.588 30.1158 113.979 29.7556 113.228 29.7556C112.392 29.7556 111.916 30.3643 111.916 31.3429C111.916 32.3215 112.449 33.0248 113.313 33.0248C113.979 33.0248 114.587 32.6258 114.587 31.3708H114.588ZM113.067 35.8897C112.518 35.8897 111.916 35.7434 111.416 35.4885L111.406 35.4832L111.721 34.7358L111.734 34.7433C111.74 34.7465 112.338 35.0648 113.049 35.0648C114.36 35.0648 114.556 34.2282 114.556 33.7292V33.3775C114.556 33.2582 114.562 33.1377 114.565 33.0915C114.259 33.5937 113.791 33.8367 113.135 33.8367C112.479 33.8367 111.939 33.5894 111.547 33.1216C111.176 32.6785 110.973 32.0537 110.973 31.3622C110.973 30.6707 111.165 30.0674 111.528 29.6341C111.906 29.1824 112.445 28.9436 113.087 28.9436C113.69 28.9436 114.071 29.1394 114.287 29.3028C114.48 29.4512 114.574 29.5975 114.602 29.647C114.598 29.6201 114.595 29.5728 114.595 29.5179V29.0576H115.506V33.6808C115.506 35.3089 114.247 35.8897 113.069 35.8897H113.067ZM111.44 35.4703C111.934 35.7198 112.525 35.8628 113.067 35.8628C114.232 35.8628 115.477 35.2896 115.477 33.6808V29.0845H114.62V29.5179C114.62 29.6018 114.63 29.6674 114.63 29.6685L114.632 29.6835H114.589L114.586 29.676C114.586 29.676 114.495 29.4975 114.267 29.3233C114.056 29.1619 113.681 28.9705 113.086 28.9705C112.452 28.9705 111.92 29.206 111.547 29.6513C111.189 30.0803 110.999 30.6718 110.999 31.3622C110.999 32.0526 111.201 32.6667 111.567 33.1044C111.953 33.5657 112.494 33.8098 113.133 33.8098C113.771 33.8098 114.246 33.5668 114.547 33.0657L114.551 33.0592H114.592V33.0732C114.592 33.0732 114.581 33.227 114.581 33.3765V33.7281C114.581 34.1927 114.43 34.5465 114.13 34.7809C113.869 34.9842 113.495 35.0917 113.048 35.0917C112.388 35.0917 111.825 34.8207 111.734 34.7734L111.44 35.4713V35.4703ZM113.314 33.0388C112.457 33.0388 111.903 32.3731 111.903 31.3429C111.903 30.3126 112.399 29.7427 113.228 29.7427C113.647 29.7427 113.974 29.8577 114.199 30.0836C114.466 30.3513 114.602 30.7847 114.602 31.3719C114.602 31.9946 114.435 33.0388 113.314 33.0388ZM113.228 29.7685C112.415 29.7685 111.93 30.3567 111.93 31.3418C111.93 32.3269 112.473 33.0108 113.314 33.0108C114.411 33.0108 114.575 31.9827 114.575 31.3708C114.575 30.2922 114.135 29.7685 113.229 29.7685H113.228ZM119.472 27.1703H120.413V33.0624H123.417V33.8797H119.472V27.1692V27.1703ZM123.43 33.8937H119.458V27.1563H120.426V33.0485H123.43V33.8926V33.8937ZM119.485 33.8668H123.403V33.0764H120.399V27.1843H119.485V33.8679V33.8668ZM126.333 28.9566C127.693 28.9566 128.414 29.9642 128.414 31.2095C128.414 31.3332 128.385 31.6085 128.385 31.6085H124.878C124.925 32.6635 125.676 33.1958 126.532 33.1958C127.388 33.1958 127.958 32.6355 127.958 32.6355L128.339 33.3109C128.339 33.3109 127.626 33.9948 126.476 33.9948C124.965 33.9948 123.929 32.9022 123.929 31.4762C123.929 29.9459 124.964 28.9576 126.333 28.9576V28.9566ZM127.474 30.9149C127.445 30.0879 126.932 29.6889 126.315 29.6889C125.612 29.6889 125.042 30.1255 124.908 30.9149H127.474ZM126.476 34.0077C124.992 34.0077 123.916 32.9431 123.916 31.4762C123.916 30.0094 124.91 28.9436 126.333 28.9436C126.981 28.9436 127.52 29.1727 127.894 29.6072C128.238 30.0083 128.428 30.5772 128.428 31.2095C128.428 31.3321 128.4 31.6074 128.399 31.6096V31.6214H124.893C124.918 32.1075 125.098 32.5097 125.412 32.7871C125.7 33.042 126.099 33.1818 126.532 33.1818C127.344 33.1818 127.943 32.6301 127.948 32.6247L127.961 32.6129L128.355 33.3119L128.347 33.3195C128.34 33.3259 127.617 34.0077 126.475 34.0077H126.476ZM126.333 28.9705C124.925 28.9705 123.943 30.0008 123.943 31.4762C123.943 32.9517 125.008 33.9808 126.476 33.9808C127.545 33.9808 128.242 33.3797 128.322 33.3076L127.955 32.657C127.863 32.7366 127.29 33.2098 126.533 33.2098C126.092 33.2098 125.688 33.0667 125.394 32.8086C125.071 32.5237 124.888 32.1096 124.866 31.6096V31.5956H128.374C128.38 31.5407 128.401 31.3171 128.401 31.2095C128.401 30.5836 128.214 30.0212 127.873 29.6254C127.504 29.1974 126.972 28.9705 126.333 28.9705ZM127.488 30.9288H124.892L124.894 30.9127C125.023 30.1492 125.568 29.676 126.314 29.676C126.86 29.676 127.455 30.0018 127.487 30.9149V30.9288H127.488ZM124.923 30.9019H127.459C127.423 30.018 126.845 29.7029 126.314 29.7029C125.586 29.7029 125.055 30.1621 124.923 30.9019ZM128.832 29.0705H129.811L130.98 32.3215C131.075 32.5871 131.132 32.9775 131.141 32.9775H131.161C131.17 32.9775 131.237 32.5882 131.332 32.3215L132.501 29.0705H133.47L131.692 33.8797H130.627L128.831 29.0705H128.832ZM131.703 33.8937H130.62L130.617 33.8851L128.813 29.0576H129.821L129.824 29.0662L130.993 32.3172C131.057 32.4989 131.106 32.7409 131.132 32.871C131.139 32.9108 131.147 32.9484 131.151 32.9635H131.152C131.156 32.9474 131.166 32.9054 131.176 32.8613C131.206 32.7237 131.256 32.4946 131.32 32.3172L132.492 29.0576H133.49L133.484 29.0759L131.703 33.8937ZM130.638 33.8668H131.683L133.45 29.0845H132.509L131.343 32.3258C131.281 32.5011 131.231 32.7301 131.2 32.8667C131.183 32.9492 131.169 32.9904 131.16 32.9904H131.14C131.131 32.9904 131.119 32.9524 131.104 32.8764C131.078 32.7473 131.031 32.5054 130.966 32.3258L129.8 29.0845H128.851L130.637 33.8668H130.638ZM136.284 28.9566C137.643 28.9566 138.365 29.9642 138.365 31.2095C138.365 31.3332 138.336 31.6085 138.336 31.6085H134.829C134.876 32.6635 135.627 33.1958 136.483 33.1958C137.339 33.1958 137.909 32.6355 137.909 32.6355L138.29 33.3109C138.29 33.3109 137.577 33.9948 136.427 33.9948C134.916 33.9948 133.879 32.9022 133.879 31.4762C133.879 29.9459 134.915 28.9576 136.284 28.9576V28.9566ZM137.424 30.9149C137.395 30.0879 136.882 29.6889 136.265 29.6889C135.561 29.6889 134.991 30.1255 134.858 30.9149H137.424ZM136.426 34.0077C134.942 34.0077 133.865 32.9431 133.865 31.4762C133.865 30.0094 134.86 28.9436 136.283 28.9436C136.93 28.9436 137.47 29.1727 137.843 29.6072C138.187 30.0083 138.378 30.5772 138.378 31.2095C138.378 31.3321 138.35 31.6074 138.349 31.6096V31.6214H134.843C134.868 32.1075 135.047 32.5097 135.361 32.7871C135.649 33.042 136.048 33.1818 136.482 33.1818C137.294 33.1818 137.893 32.6301 137.898 32.6247L137.911 32.6129L138.305 33.3119L138.297 33.3195C138.29 33.3259 137.567 34.0077 136.425 34.0077H136.426ZM136.284 28.9705C134.876 28.9705 133.893 30.0008 133.893 31.4762C133.893 32.9517 134.959 33.9808 136.427 33.9808C137.496 33.9808 138.193 33.3797 138.272 33.3076L137.906 32.657C137.814 32.7366 137.241 33.2098 136.484 33.2098C136.043 33.2098 135.639 33.0667 135.345 32.8086C135.021 32.5237 134.839 32.1096 134.817 31.6096V31.5956H138.325C138.33 31.5407 138.352 31.3171 138.352 31.2095C138.352 30.5836 138.165 30.0212 137.824 29.6254C137.455 29.1974 136.923 28.9705 136.284 28.9705ZM137.438 30.9288H134.842L134.844 30.9127C134.973 30.1492 135.517 29.676 136.263 29.676C136.81 29.676 137.404 30.0018 137.437 30.9149V30.9288H137.438ZM134.874 30.9019H137.41C137.373 30.018 136.796 29.7029 136.265 29.7029C135.536 29.7029 135.005 30.1621 134.874 30.9019ZM139.439 29.0705H140.333V29.9072C140.333 30.1072 140.313 30.2685 140.313 30.2685H140.333C140.551 29.5652 141.112 29.0135 141.853 29.0135C141.977 29.0135 142.091 29.0329 142.091 29.0329V29.9448C142.091 29.9448 141.967 29.9169 141.825 29.9169C141.236 29.9169 140.694 30.3352 140.476 31.0482C140.39 31.3235 140.362 31.6182 140.362 31.9128V33.8797H139.44V29.0705H139.439ZM140.374 33.8937H139.425V29.0576H140.346V29.9072C140.346 30.0459 140.336 30.1685 140.331 30.2288C140.577 29.4813 141.171 29.0006 141.852 29.0006C141.976 29.0006 142.091 29.02 142.092 29.02L142.103 29.0221V29.9631L142.087 29.9588C142.087 29.9588 141.963 29.9309 141.823 29.9309C141.22 29.9309 140.695 30.3707 140.487 31.0525C140.41 31.2988 140.374 31.5805 140.374 31.9128V33.8937ZM139.452 33.8668H140.347V31.9128C140.347 31.5773 140.384 31.2923 140.462 31.0439C140.675 30.3513 141.209 29.904 141.824 29.904C141.936 29.904 142.038 29.9223 142.077 29.9298V29.0458C142.046 29.0415 141.951 29.0286 141.853 29.0286C141.173 29.0286 140.58 29.5168 140.346 30.2739L140.342 30.2836H140.298L140.301 30.2685C140.301 30.2685 140.32 30.1051 140.32 29.9094V29.0867H139.453V33.869L139.452 33.8668ZM145.54 27.1703H147.764C149.817 27.1703 151.166 28.3963 151.166 30.5159C151.166 32.6355 149.817 33.8808 147.764 33.8808H145.54V27.1703ZM147.697 33.0624C149.208 33.0624 150.196 32.1688 150.196 30.5148C150.196 28.8608 149.198 27.9865 147.697 27.9865H146.481V33.0614H147.697V33.0624ZM147.764 33.8937H145.526V27.1563H147.764C149.871 27.1563 151.179 28.4436 151.179 30.5148C151.179 32.586 149.871 33.8926 147.764 33.8926V33.8937ZM145.554 33.8668H147.765C149.855 33.8668 151.153 32.5828 151.153 30.5159C151.153 29.491 150.833 28.6415 150.226 28.0575C149.632 27.4854 148.781 27.1832 147.765 27.1832H145.554V33.8668ZM147.697 33.0764H146.467V27.9747H147.697C149.27 27.9747 150.21 28.9243 150.21 30.5159C150.21 32.1075 149.27 33.0764 147.697 33.0764ZM146.494 33.0495H147.697C149.254 33.0495 150.183 32.1021 150.183 30.5159C150.183 28.9297 149.254 28.0016 147.697 28.0016H146.494V33.0495ZM154.844 30.8772H155.053V30.7923C155.053 30.0029 154.607 29.7373 153.998 29.7373C153.257 29.7373 152.658 30.2029 152.658 30.2029L152.277 29.5287C152.277 29.5287 152.971 28.9587 154.073 28.9587C155.289 28.9587 155.975 29.6244 155.975 30.8407V33.8819H155.12V33.4259C155.12 33.2076 155.139 33.0452 155.139 33.0452H155.12C155.12 33.0452 154.73 33.9959 153.58 33.9959C152.753 33.9959 151.945 33.4926 151.945 32.5323C151.945 30.945 154.036 30.8783 154.844 30.8783V30.8772ZM153.78 33.2528C154.559 33.2528 155.063 32.4355 155.063 31.7225V31.5709H154.825C154.131 31.5709 152.876 31.6182 152.876 32.4828C152.876 32.8721 153.181 33.2528 153.78 33.2528ZM153.58 34.0077C152.76 34.0077 151.931 33.5001 151.931 32.5301C151.931 31.8429 152.32 31.3601 153.086 31.0955C153.69 30.8869 154.378 30.8632 154.843 30.8632H155.039V30.7912C155.039 30.0997 154.688 29.7491 153.997 29.7491C153.269 29.7491 152.671 30.2072 152.665 30.2115L152.654 30.2212L152.26 29.5233L152.269 29.5158C152.275 29.5104 152.978 28.9426 154.073 28.9426C155.308 28.9426 155.987 29.6158 155.987 30.8374V33.8926H155.106V33.4227C155.106 33.2582 155.116 33.1248 155.122 33.0689C155.054 33.2098 154.628 34.0066 153.58 34.0066V34.0077ZM154.844 30.8901C152.93 30.8901 151.959 31.4418 151.959 32.5301C151.959 33.4818 152.774 33.9808 153.581 33.9808C154.708 33.9808 155.104 33.0485 155.108 33.0388L155.111 33.0302H155.154L155.152 33.0452C155.152 33.0452 155.132 33.2087 155.132 33.4238V33.8668H155.961V30.8385C155.961 29.6341 155.291 28.9705 154.073 28.9705C153.054 28.9705 152.378 29.4663 152.294 29.5308L152.661 30.1825C152.752 30.1169 153.318 29.7233 153.997 29.7233C154.675 29.7233 155.066 30.0825 155.066 30.7923V30.8912H154.843L154.844 30.8901ZM153.78 33.2668C153.15 33.2668 152.863 32.8603 152.863 32.4839C152.863 31.5579 154.288 31.5579 154.825 31.5579H155.075V31.7236C155.075 32.086 154.944 32.4742 154.724 32.7645C154.476 33.0893 154.141 33.2678 153.78 33.2678V33.2668ZM154.825 31.5838C153.995 31.5838 152.89 31.6773 152.89 32.4828C152.89 32.8474 153.169 33.2388 153.78 33.2388C154.133 33.2388 154.461 33.0635 154.702 32.7463C154.92 32.4613 155.049 32.0784 155.049 31.7225V31.5838H154.825ZM157.305 29.0705H158.198V29.9072C158.198 30.1072 158.179 30.2685 158.179 30.2685H158.198C158.417 29.5652 158.978 29.0135 159.719 29.0135C159.843 29.0135 159.957 29.0329 159.957 29.0329V29.9448C159.957 29.9448 159.833 29.9169 159.691 29.9169C159.102 29.9169 158.56 30.3352 158.341 31.0482C158.255 31.3235 158.227 31.6182 158.227 31.9128V33.8797H157.306V29.0705H157.305ZM158.24 33.8937H157.292V29.0576H158.212V29.9072C158.212 30.0459 158.203 30.1685 158.197 30.2288C158.444 29.4813 159.037 29.0006 159.719 29.0006C159.843 29.0006 159.958 29.02 159.959 29.02L159.97 29.0221V29.9631L159.954 29.9588C159.954 29.9588 159.83 29.9309 159.69 29.9309C159.087 29.9309 158.562 30.3707 158.353 31.0525C158.277 31.2988 158.24 31.5805 158.24 31.9128V33.8937ZM157.319 33.8668H158.213V31.9128C158.213 31.5773 158.251 31.2923 158.329 31.0439C158.541 30.3513 159.076 29.904 159.691 29.904C159.803 29.904 159.905 29.9223 159.944 29.9298V29.0458C159.913 29.0415 159.818 29.0286 159.72 29.0286C159.039 29.0286 158.447 29.5168 158.212 30.2739L158.209 30.2836H158.165L158.167 30.2685C158.167 30.2685 158.187 30.1051 158.187 29.9094V29.0867H157.32V33.869L157.319 33.8668ZM160.821 29.0705H161.715V29.7072C161.715 29.8975 161.696 30.0588 161.696 30.0588H161.715C161.943 29.4986 162.618 28.9566 163.369 28.9566C164.177 28.9566 164.652 29.3276 164.813 30.0492H164.833C165.098 29.4695 165.764 28.9566 166.544 28.9566C167.628 28.9566 168.131 29.5749 168.131 30.8009V33.8797H167.209V30.9998C167.209 30.3255 167.076 29.7932 166.354 29.7932C165.68 29.7932 165.176 30.3632 165.005 31.0192C164.957 31.2192 164.938 31.4375 164.938 31.6848V33.8808H164.016V31.0009C164.016 30.3739 163.922 29.7943 163.18 29.7943C162.438 29.7943 161.982 30.3739 161.802 31.0579C161.755 31.2482 161.745 31.4665 161.745 31.6848V33.8808H160.823V29.0716L160.821 29.0705ZM168.144 33.8937H167.195V31.0009C167.195 30.3815 167.093 29.8072 166.353 29.8072C165.846 29.8072 165.236 30.1836 165.016 31.0235C164.971 31.2127 164.951 31.4235 164.951 31.6848V33.8937H164.002V31.0009C164.002 30.2847 163.863 29.8072 163.18 29.8072C162.552 29.8072 162.016 30.2997 161.815 31.0611C161.766 31.2601 161.758 31.488 161.758 31.6848V33.8937H160.81V29.0576H161.73V29.7083C161.73 29.8491 161.719 29.975 161.714 30.0309C161.943 29.4996 162.594 28.9436 163.37 28.9436C164.146 28.9436 164.659 29.3114 164.825 30.0363C165.071 29.5082 165.712 28.9436 166.545 28.9436C167.622 28.9436 168.145 29.5513 168.145 30.8009V33.8937H168.144ZM167.222 33.8668H168.117V30.8009C168.117 29.5695 167.602 28.9705 166.544 28.9705C165.719 28.9705 165.085 29.533 164.846 30.0556L164.842 30.0631H164.804L164.801 30.0524C164.641 29.334 164.159 28.9695 163.37 28.9695C162.581 28.9695 161.944 29.533 161.729 30.0631L161.726 30.0717H161.683L161.685 30.0567C161.685 30.0567 161.704 29.8932 161.704 29.7061V29.0824H160.837V33.8647H161.732V31.6827C161.732 31.4848 161.739 31.2547 161.789 31.0525C161.994 30.2782 162.54 29.7782 163.181 29.7782C163.928 29.7782 164.03 30.3643 164.03 30.9987V33.8647H164.925V31.6827C164.925 31.4181 164.947 31.2063 164.992 31.0149C165.214 30.161 165.837 29.7782 166.354 29.7782C167.118 29.7782 167.223 30.3643 167.223 30.9987V33.8647L167.222 33.8668ZM172.064 32.3978C172.064 32.3978 172.777 33.1205 173.775 33.1205C174.402 33.1205 174.934 32.7688 174.934 32.1322C174.934 30.6783 171.683 30.9912 171.683 28.9297C171.683 27.8844 172.586 27.0574 173.85 27.0574C175.113 27.0574 175.751 27.7317 175.751 27.7317L175.323 28.5113C175.323 28.5113 174.706 27.9317 173.85 27.9317C173.137 27.9317 172.634 28.378 172.634 28.9103C172.634 30.2976 175.884 29.9276 175.884 32.1043C175.884 33.1399 175.087 33.9959 173.755 33.9959C172.329 33.9959 171.531 33.1119 171.531 33.1119L172.064 32.3989V32.3978ZM173.756 34.0077C172.341 34.0077 171.53 33.128 171.523 33.1194L171.515 33.1108L171.522 33.1022L172.064 32.3763L172.074 32.3871C172.082 32.3946 172.795 33.1055 173.776 33.1055C174.567 33.1055 174.922 32.6161 174.922 32.1301C174.922 31.4751 174.239 31.1773 173.516 30.8622C172.652 30.4847 171.671 30.0567 171.671 28.9275C171.671 27.7983 172.609 27.0413 173.852 27.0413C174.498 27.0413 174.982 27.2252 175.276 27.38C175.594 27.5478 175.761 27.7188 175.763 27.7198L175.769 27.7274L175.329 28.5307L175.316 28.5189C175.309 28.5135 174.692 27.9424 173.852 27.9424C173.178 27.9424 172.649 28.3662 172.649 28.9082C172.649 29.5158 173.272 29.7771 173.994 30.0814C174.887 30.4567 175.9 30.8826 175.9 32.1021C175.9 32.6237 175.697 33.1012 175.33 33.4464C174.938 33.8131 174.395 34.0066 173.757 34.0066L173.756 34.0077ZM171.55 33.1098C171.634 33.1979 172.426 33.9808 173.756 33.9808C175.002 33.9808 175.872 33.2087 175.872 32.1032C175.872 30.902 174.868 30.4804 173.982 30.1072C173.282 29.8126 172.621 29.534 172.621 28.9092C172.621 28.3532 173.161 27.9166 173.851 27.9166C174.635 27.9166 175.227 28.407 175.32 28.4888L175.735 27.7327C175.661 27.6618 175.008 27.0692 173.851 27.0692C172.623 27.0692 171.697 27.8682 171.697 28.9286C171.697 30.0406 172.669 30.4653 173.526 30.8385C174.257 31.1568 174.948 31.459 174.948 32.1311C174.948 32.7215 174.465 33.1334 173.775 33.1334C172.85 33.1334 172.16 32.5086 172.066 32.4183L171.55 33.1098ZM177.167 29.8792H176.541V29.1383H177.196V27.751H178.09V29.1383H179.249V29.8792H178.09V32.0171C178.09 32.9775 178.764 33.1011 179.116 33.1011C179.249 33.1011 179.334 33.0818 179.334 33.0818V33.8991C179.334 33.8991 179.201 33.9185 179.012 33.9185C178.394 33.9185 177.167 33.7281 177.167 32.1225V29.8792ZM179.012 33.9314C178.692 33.9314 178.231 33.8797 177.851 33.6335C177.389 33.3345 177.155 32.8258 177.155 32.1215V29.8922H176.528V29.1243H177.184V27.737H178.104V29.1243H179.263V29.8922H178.104V32.0171C178.104 32.9484 178.739 33.0872 179.117 33.0872C179.247 33.0872 179.332 33.0689 179.333 33.0689L179.349 33.0657V33.9109L179.338 33.9131C179.338 33.9131 179.201 33.9324 179.013 33.9324L179.012 33.9314ZM176.553 29.8653H177.18V32.1215C177.18 33.6722 178.327 33.9045 179.011 33.9045C179.166 33.9045 179.284 33.8916 179.32 33.8873V33.0979C179.289 33.1033 179.216 33.1141 179.115 33.1141C178.727 33.1141 178.075 32.971 178.075 32.0171V29.8653H179.234V29.1512H178.075V27.7639H177.208V29.1512H176.552V29.8653H176.553ZM180.313 27.1703H181.244V28.1113H180.313V27.1703ZM180.323 29.0705H181.244V33.8797H180.323V29.0705ZM181.258 33.8937H180.31V29.0576H181.258V33.8937ZM180.336 33.8668H181.23V29.0845H180.336V33.8668ZM181.258 28.1242H180.3V27.1563H181.258V28.1242ZM180.326 28.0973H181.23V27.1832H180.326V28.0973ZM184.875 28.9566C186.081 28.9566 186.68 29.6599 186.68 29.6599L186.243 30.3062C186.243 30.3062 185.73 29.7545 184.912 29.7545C183.944 29.7545 183.24 30.4772 183.24 31.4655C183.24 32.4538 183.944 33.1947 184.942 33.1947C185.835 33.1947 186.425 32.5484 186.425 32.5484L186.796 33.2237C186.796 33.2237 186.13 33.9937 184.876 33.9937C183.365 33.9937 182.3 32.9194 182.3 31.4751C182.3 30.0309 183.365 28.9566 184.876 28.9566H184.875ZM184.875 34.0077C183.375 34.0077 182.285 32.9431 182.285 31.4762C182.285 30.7772 182.542 30.1363 183.01 29.6728C183.483 29.2028 184.146 28.9436 184.874 28.9436C185.501 28.9436 185.96 29.1361 186.236 29.2975C186.535 29.4727 186.688 29.6502 186.69 29.6523L186.697 29.6599L186.691 29.6685L186.245 30.3288L186.233 30.3159C186.228 30.3105 185.714 29.7685 184.912 29.7685C183.951 29.7685 183.253 30.4825 183.253 31.4655C183.253 32.4484 183.963 33.1818 184.94 33.1818C185.817 33.1818 186.407 32.5462 186.413 32.5398L186.426 32.5258L186.434 32.5419L186.81 33.2248L186.803 33.2324C186.797 33.2399 186.119 34.0066 184.873 34.0066L184.875 34.0077ZM184.875 28.9705C184.153 28.9705 183.498 29.2265 183.029 29.6911C182.567 30.1502 182.312 30.7837 182.312 31.4751C182.312 32.9269 183.39 33.9798 184.875 33.9798C186.045 33.9798 186.707 33.2979 186.778 33.2216L186.421 32.571C186.33 32.6645 185.759 33.2087 184.942 33.2087C183.948 33.2087 183.227 32.4753 183.227 31.4655C183.227 30.4557 183.936 29.7416 184.914 29.7416C185.66 29.7416 186.16 30.204 186.242 30.2847L186.664 29.6609C186.594 29.5857 185.994 28.9695 184.876 28.9695L184.875 28.9705ZM187.792 27.1703H188.714V29.6319C188.714 29.8599 188.695 30.0309 188.695 30.0309H188.714C188.923 29.5652 189.531 28.9566 190.492 28.9566C191.623 28.9566 192.146 29.5749 192.146 30.8009V33.8797H191.224V31.0095C191.224 30.3352 191.081 29.8029 190.312 29.8029C189.589 29.8029 188.991 30.2976 188.791 30.9912C188.734 31.1816 188.715 31.3999 188.715 31.6278V33.8808H187.793V27.1703H187.792ZM192.159 33.8937H191.21V31.0095C191.21 30.3901 191.101 29.8158 190.311 29.8158C189.612 29.8158 189.005 30.289 188.803 30.9944C188.753 31.1644 188.728 31.3708 188.728 31.6278V33.8937H187.78V27.1563H188.728V29.6308C188.728 29.805 188.717 29.947 188.712 30.004C188.902 29.5996 189.48 28.9426 190.492 28.9426C191.613 28.9426 192.159 29.5502 192.159 30.7998V33.8926V33.8937ZM191.237 33.8668H192.132V30.8009C192.132 29.5695 191.595 28.9705 190.492 28.9705C189.477 28.9705 188.904 29.6405 188.727 30.0363L188.724 30.0438H188.681L188.683 30.0287C188.683 30.0287 188.702 29.8556 188.702 29.6308V27.1832H187.807V33.8668H188.702V31.6278C188.702 31.3687 188.727 31.159 188.779 30.9869C188.985 30.2707 189.601 29.7889 190.312 29.7889C191.126 29.7889 191.238 30.375 191.238 31.0095V33.8668H191.237ZM193.675 29.8792H193.048V29.1383H193.704V27.751H194.598V29.1383H195.757V29.8792H194.598V32.0171C194.598 32.9775 195.272 33.1011 195.623 33.1011C195.757 33.1011 195.842 33.0818 195.842 33.0818V33.8991C195.842 33.8991 195.708 33.9185 195.519 33.9185C194.902 33.9185 193.675 33.7281 193.675 32.1225V29.8792ZM195.519 33.9314C195.2 33.9314 194.738 33.8797 194.359 33.6335C193.896 33.3345 193.662 32.8258 193.662 32.1215V29.8922H193.035V29.1243H193.691V27.737H194.612V29.1243H195.771V29.8922H194.612V32.0171C194.612 32.9484 195.246 33.0872 195.625 33.0872C195.755 33.0872 195.84 33.0689 195.841 33.0689L195.857 33.0657V33.9109L195.845 33.9131C195.845 33.9131 195.708 33.9324 195.52 33.9324L195.519 33.9314ZM193.061 29.8653H193.688V32.1215C193.688 33.6722 194.834 33.9045 195.518 33.9045C195.673 33.9045 195.791 33.8916 195.828 33.8873V33.0979C195.797 33.1033 195.724 33.1141 195.622 33.1141C195.234 33.1141 194.582 32.971 194.582 32.0171V29.8653H195.742V29.1512H194.582V27.7639H193.716V29.1512H193.06V29.8653H193.061ZM196.82 27.1703H197.752V28.1113H196.82V27.1703ZM196.83 29.0705H197.752V33.8797H196.83V29.0705ZM197.766 33.8937H196.817V29.0576H197.766V33.8937ZM196.843 33.8668H197.738V29.0845H196.843V33.8668ZM197.766 28.1242H196.808V27.1563H197.766V28.1242ZM196.834 28.0973H197.739V27.1832H196.834V28.0973ZM199.149 29.0705H200.042V29.7072C200.042 29.8975 200.023 30.0588 200.023 30.0588H200.042C200.233 29.6405 200.803 28.9566 201.848 28.9566C202.979 28.9566 203.502 29.5749 203.502 30.8009V33.8797H202.58V31.0095C202.58 30.3352 202.437 29.8029 201.668 29.8029C200.899 29.8029 200.348 30.2879 200.148 30.9815C200.091 31.1719 200.071 31.3902 200.071 31.6278V33.8808H199.15V29.0716L199.149 29.0705ZM203.515 33.8937H202.566V31.0095C202.566 30.3901 202.458 29.8158 201.667 29.8158C200.955 29.8158 200.364 30.275 200.16 30.9848C200.108 31.1568 200.084 31.3611 200.084 31.6278V33.8937H199.136V29.0576H200.056V29.7083C200.056 29.8513 200.046 29.9793 200.04 30.0341C200.28 29.5265 200.892 28.9447 201.849 28.9447C202.971 28.9447 203.516 29.5523 203.516 30.8019V33.8948L203.515 33.8937ZM202.593 33.8668H203.488V30.8009C203.488 29.5695 202.951 28.9705 201.848 28.9705C200.891 28.9705 200.284 29.5599 200.054 30.0653L200.051 30.0728H200.008L200.01 30.0578C200.01 30.0578 200.029 29.8943 200.029 29.7072V29.0834H199.163V33.8658H200.057V31.6268C200.057 31.3579 200.082 31.1504 200.134 30.9762C200.341 30.2546 200.944 29.7878 201.667 29.7878C202.481 29.7878 202.593 30.3739 202.593 31.0084V33.8658V33.8668ZM206.581 35.0777C207.417 35.0777 208.101 34.7067 208.101 33.7281V33.3765C208.101 33.2248 208.111 33.0721 208.111 33.0721H208.092C207.807 33.5474 207.359 33.8227 206.666 33.8227C205.326 33.8227 204.518 32.7484 204.518 31.3611C204.518 29.9739 205.288 28.9566 206.618 28.9566C207.778 28.9566 208.129 29.6695 208.129 29.6695H208.149C208.149 29.6695 208.139 29.6029 208.139 29.5179V29.0716H209.023V33.6808C209.023 35.2681 207.816 35.8768 206.599 35.8768C206.019 35.8768 205.42 35.7155 204.955 35.4778L205.259 34.7551C205.259 34.7551 205.858 35.0777 206.58 35.0777H206.581ZM208.121 31.3708C208.121 30.1158 207.512 29.7556 206.761 29.7556C205.925 29.7556 205.449 30.3643 205.449 31.3429C205.449 32.3215 205.982 33.0248 206.846 33.0248C207.512 33.0248 208.12 32.6258 208.12 31.3708H208.121ZM206.6 35.8897C206.051 35.8897 205.449 35.7434 204.949 35.4885L204.939 35.4832L205.254 34.7358L205.267 34.7433C205.273 34.7465 205.871 35.0648 206.582 35.0648C207.893 35.0648 208.09 34.2282 208.09 33.7292V33.3775C208.09 33.2582 208.095 33.1377 208.098 33.0915C207.792 33.5937 207.324 33.8367 206.668 33.8367C206.012 33.8367 205.472 33.5894 205.081 33.1216C204.71 32.6785 204.506 32.0537 204.506 31.3622C204.506 30.6707 204.698 30.0674 205.061 29.6341C205.439 29.1824 205.979 28.9436 206.621 28.9436C207.223 28.9436 207.605 29.1394 207.82 29.3028C208.013 29.4512 208.107 29.5975 208.135 29.647C208.131 29.6201 208.128 29.5728 208.128 29.5179V29.0576H209.039V33.6808C209.039 35.3089 207.78 35.8897 206.602 35.8897H206.6ZM204.973 35.4703C205.467 35.7198 206.058 35.8628 206.6 35.8628C207.765 35.8628 209.01 35.2896 209.01 33.6808V29.0845H208.153V29.5179C208.153 29.6018 208.163 29.6674 208.163 29.6685L208.165 29.6835H208.122L208.119 29.676C208.119 29.676 208.028 29.4975 207.8 29.3233C207.589 29.1619 207.214 28.9705 206.619 28.9705C205.985 28.9705 205.453 29.206 205.081 29.6513C204.722 30.0803 204.532 30.6718 204.532 31.3622C204.532 32.0526 204.734 32.6667 205.1 33.1044C205.486 33.5657 206.027 33.8098 206.666 33.8098C207.305 33.8098 207.779 33.5668 208.08 33.0657L208.084 33.0592H208.125V33.0732C208.125 33.0732 208.114 33.227 208.114 33.3765V33.7281C208.114 34.1927 207.963 34.5465 207.663 34.7809C207.402 34.9842 207.028 35.0917 206.581 35.0917C205.922 35.0917 205.358 34.8207 205.267 34.7734L204.973 35.4713V35.4703ZM206.846 33.0388C205.989 33.0388 205.435 32.3731 205.435 31.3429C205.435 30.3126 205.931 29.7427 206.76 29.7427C207.179 29.7427 207.506 29.8577 207.731 30.0836C207.998 30.3513 208.134 30.7847 208.134 31.3719C208.134 31.9946 207.967 33.0388 206.846 33.0388ZM206.761 29.7685C205.948 29.7685 205.463 30.3567 205.463 31.3418C205.463 32.3269 206.006 33.0108 206.847 33.0108C207.944 33.0108 208.108 31.9827 208.108 31.3708C208.108 30.2922 207.668 29.7685 206.763 29.7685H206.761Z" fill="#5F348A" />
	<path d="M47.3363 6.16687H50.7701V7.8273C50.7701 8.36177 50.7142 8.81236 50.7142 8.81236H50.7701C51.4734 7.40466 53.1908 5.8292 55.4427 5.8292C57.6946 5.8292 59.0453 6.84223 59.6368 8.7844H59.6927C60.481 7.23582 62.3382 5.8292 64.5901 5.8292C67.5733 5.8292 69.2907 7.51758 69.2907 11.2901V20.5224H65.716V11.9654C65.716 10.333 65.4063 9.09412 63.7459 9.09412C60.1153 9.09412 60.1153 13.5409 60.1153 14.2163V20.5213H56.5407V11.9644C56.5407 10.4169 56.288 9.09305 54.5985 9.09305C50.911 9.09305 50.911 13.5689 50.911 14.2152V20.5203H47.3363V6.1658V6.16687ZM78.552 5.8292C81.704 5.8292 82.6891 7.65846 82.6891 7.65846H82.745C82.745 7.65846 82.7171 7.29282 82.7171 6.84223V0.309161H86.2917V20.5213H82.9139V19.3395C82.9139 18.805 82.9698 18.4103 82.9698 18.4103H82.9139C82.9139 18.4103 81.704 20.859 78.4101 20.859C74.5257 20.859 72.0491 17.7909 72.0491 13.3441C72.0491 8.89732 74.7516 5.8292 78.551 5.8292H78.552ZM79.2274 17.8479C81.0846 17.8479 82.83 16.4972 82.83 13.3161C82.83 11.0922 81.6481 8.89732 79.2553 8.89732C77.2852 8.89732 75.6527 10.5018 75.6527 13.3441C75.6527 16.1864 77.1164 17.8479 79.2274 17.8479ZM90.0363 0.309161H93.5829V15.511C93.5829 17.0876 94.1174 17.4812 95.0465 17.4812C95.3283 17.4812 95.581 17.4532 95.581 17.4532V20.5773C95.581 20.5773 95.0465 20.6622 94.4551 20.6622C92.4849 20.6622 90.0363 20.1557 90.0363 16.0466V0.309161ZM101.323 7.7832H99.5245V6.15612H101.323V5.64638C101.323 0.908159 104.662 0.309161 106.289 0.309161C106.831 0.309161 107.174 0.366157 107.174 0.366157V2.10723C107.174 2.10723 106.889 2.05024 106.489 2.05024C105.376 2.05024 103.264 2.45029 103.264 5.64638V6.15612H106.946V7.7832H103.264V20.517H101.323V7.7832ZM116.221 5.81737C120.416 5.81737 123.814 9.01454 123.814 13.2667C123.814 17.5188 120.417 20.859 116.221 20.859C112.025 20.859 108.629 17.6049 108.629 13.2667C108.629 8.92851 112.025 5.81737 116.221 5.81737ZM116.221 19.1179C119.303 19.1179 121.815 16.6058 121.815 13.2667C121.815 9.92756 119.303 7.58641 116.221 7.58641C113.139 7.58641 110.627 10.0125 110.627 13.2667C110.627 16.5208 113.139 19.1179 116.221 19.1179ZM127.439 6.16042H129.351V8.30155C129.351 8.92958 129.294 9.44362 129.294 9.44362H129.351C129.865 8.13056 131.691 5.81845 135.088 5.81845C138.485 5.81845 139.883 7.8445 139.883 11.3837V20.517H137.942V11.8977C137.942 9.64257 137.6 7.64448 134.831 7.64448C132.377 7.64448 130.265 9.32856 129.608 11.6977C129.437 12.2967 129.38 12.9537 129.38 13.6388V20.517H127.439V6.16042ZM149.873 5.81737C153.355 5.81737 154.554 8.52846 154.554 8.52846H154.611C154.611 8.52846 154.554 8.04345 154.554 7.44338V0.308085H156.495V20.516H154.611V19.0029C154.611 18.3748 154.668 17.9759 154.668 17.9759H154.611C154.611 17.9759 153.441 20.859 149.674 20.859C145.907 20.859 143.424 17.7769 143.424 13.3237C143.424 8.87044 146.107 5.81737 149.874 5.81737H149.873ZM149.958 19.1179C152.355 19.1179 154.61 17.4059 154.61 13.3237C154.61 10.4126 153.126 7.55844 150.044 7.55844C147.504 7.55844 145.421 9.69957 145.421 13.3237C145.421 16.9478 147.276 19.1179 149.959 19.1179H149.958ZM161.061 17.3769C161.061 17.3769 162.659 19.1179 165.342 19.1179C166.883 19.1179 168.226 18.3469 168.226 16.8349C168.226 13.6958 160.491 14.4658 160.491 9.7856C160.491 7.21647 162.803 5.81845 165.4 5.81845C168.426 5.81845 169.825 7.38853 169.825 7.38853L168.94 8.87259C168.94 8.87259 167.713 7.55952 165.343 7.55952C163.887 7.55952 162.489 8.18755 162.489 9.7856C162.489 12.9537 170.225 12.0977 170.225 16.8349C170.225 19.1749 168.199 20.859 165.315 20.859C161.833 20.859 160.006 18.7749 160.006 18.7749L161.062 17.3769H161.061ZM34.1057 3.03315C30.0611 0.554353 24.711 0.151077 19.991 0.148926C14.7699 0.22743 8.86383 0.716739 4.90205 4.18599C1.66939 7.07452 0.630552 11.5622 0.226201 15.7175C-0.0792131 18.9287 -0.0802885 22.1753 0.253086 25.3843C1.06609 33.951 4.7117 39.1796 14.2677 40.2786C20.8664 40.9776 29.7955 41.1325 35.2144 36.975L35.2187 36.9718C39.5182 33.4853 40.3107 27.3125 40.4957 21.9484C40.6119 15.2594 40.1688 6.85406 34.1057 3.03423V3.03315ZM9.06493 22.2796C8.68962 22.3893 8.11428 22.6592 7.63142 22.6592C6.90122 22.6592 6.37858 22.0463 7.05823 19.347C7.32063 18.306 8.19923 15.1916 11.3093 15.1916C12.3589 15.1916 13.4343 15.5239 14.3129 16.0541C15.2012 16.5897 15.6883 17.0295 16.0464 17.1317C20.1685 18.3049 21.7256 19.6062 19.8641 20.6601C18.7511 21.2903 17.709 21.529 16.5906 21.529C15.9195 21.529 15.2205 21.443 14.4635 21.3032C14.4151 21.2978 14.3667 21.2956 14.3193 21.2956C14.101 21.2956 13.886 21.3494 13.6795 21.4322C12.8977 21.7462 12.1492 21.9635 11.3168 21.9667C10.3737 21.9882 9.96074 21.9925 9.06601 22.2796H9.06493ZM20.8277 26.2909C20.9309 26.5694 21.0793 26.8329 21.2718 27.0824C21.1299 27.3286 20.9911 27.605 20.8169 27.8975C18.4199 31.9292 16.1432 27.0974 15.3109 25.9984C14.0892 24.3831 12.7073 23.7583 11.7427 22.9163C12.6503 22.8453 13.4364 22.5711 14.0397 22.3291C14.1505 22.285 14.2441 22.2624 14.3193 22.2624C14.3247 22.2624 14.329 22.2624 14.3344 22.2624C15.2087 22.4216 15.9271 22.4958 16.5917 22.4958C17.9521 22.4958 19.1436 22.1796 20.3427 21.501C21.4998 20.8461 21.6654 20.0643 21.6009 19.5244C21.4643 18.377 20.1814 17.4446 17.4832 16.5574C18.5242 14.74 18.1263 12.5333 19.4017 11.6106C20.361 10.9384 21.3869 11.5955 22.1139 12.4042C22.9118 13.2624 23.6872 14.5217 25.0164 15.796C26.281 17.0091 27.535 17.8705 28.3265 18.4867C27.992 18.8168 27.6877 19.2201 27.422 19.6954C27.4156 19.7073 27.4081 19.7202 27.4016 19.7331C27.2715 19.9901 27.1553 20.2417 27.0424 20.4848C26.3983 21.8753 26.0606 22.4915 24.8249 22.5409C24.8196 22.5409 24.8153 22.5409 24.8099 22.5409C24.7454 22.5442 24.6798 22.5474 24.6131 22.5517C23.3979 22.6141 21.7342 22.7001 20.9696 24.139C20.6169 24.8025 20.5653 25.5876 20.8277 26.2919V26.2909ZM33.626 23.9013C32.9034 27.0437 30.2407 28.5062 27.3769 28.5062C26.4424 28.5062 25.4863 28.3503 24.5701 28.0459C23.4925 27.6717 22.13 27.0146 21.7342 25.9521C21.5697 25.5091 21.602 25.0079 21.8246 24.5907C22.3623 23.5776 23.7409 23.5669 24.8626 23.5056C27.0682 23.4185 27.4382 21.8086 28.2652 20.1665C28.7287 19.3384 29.4718 18.5168 30.4697 18.4372H30.488C30.5353 18.4329 30.5816 18.4318 30.6278 18.4318C31.5828 18.4318 32.4001 19.0513 32.9571 19.903C33.7304 21.0838 33.9411 22.5366 33.626 23.9013Z" fill="#5F348A" />
</svg>
